<svg width="39" height="39" viewBox="0 0 39 39" fill="none" xmlns="http://www.w3.org/2000/svg">
<path fill-rule="evenodd" clip-rule="evenodd" d="M35.75 19.5C35.75 28.4746 28.4746 35.75 19.5 35.75C10.5254 35.75 3.25 28.4746 3.25 19.5C3.25 10.5254 10.5254 3.25 19.5 3.25C28.4746 3.25 35.75 10.5254 35.75 19.5ZM17.9497 17.9498V12.9318C17.9497 12.7282 17.9898 12.5266 18.0678 12.3385C18.1457 12.1505 18.2598 11.9796 18.4038 11.8356C18.5478 11.6916 18.7187 11.5775 18.9067 11.4996C19.0948 11.4216 19.2964 11.3815 19.5 11.3815C19.7036 11.3815 19.9052 11.4216 20.0933 11.4996C20.2813 11.5775 20.4522 11.6916 20.5962 11.8356C20.7401 11.9796 20.8543 12.1505 20.9322 12.3385C21.0101 12.5266 21.0502 12.7282 21.0502 12.9318V17.9498H26.0682C26.2718 17.9498 26.4734 17.9899 26.6615 18.0678C26.8496 18.1457 27.0205 18.2599 27.1644 18.4039C27.3084 18.5478 27.4226 18.7187 27.5005 18.9068C27.5784 19.0949 27.6185 19.2965 27.6185 19.5C27.6185 19.7036 27.5784 19.9052 27.5005 20.0933C27.4226 20.2814 27.3084 20.4523 27.1644 20.5962C27.0205 20.7402 26.8496 20.8544 26.6615 20.9323C26.4734 21.0102 26.2718 21.0503 26.0682 21.0503H21.0502V26.0683C21.0502 26.2719 21.0101 26.4735 20.9322 26.6616C20.8543 26.8496 20.7401 27.0205 20.5962 27.1645C20.4522 27.3084 20.2813 27.4226 20.0933 27.5005C19.9052 27.5784 19.7036 27.6185 19.5 27.6185C19.2964 27.6185 19.0948 27.5784 18.9067 27.5005C18.7187 27.4226 18.5478 27.3084 18.4038 27.1645C18.2598 27.0205 18.1457 26.8496 18.0678 26.6616C17.9898 26.4735 17.9497 26.2719 17.9497 26.0683V21.0503H12.9317C12.7282 21.0503 12.5266 21.0102 12.3385 20.9323C12.1504 20.8544 11.9795 20.7402 11.8356 20.5962C11.6916 20.4523 11.5774 20.2814 11.4995 20.0933C11.4216 19.9052 11.3815 19.7036 11.3815 19.5C11.3815 19.2965 11.4216 19.0949 11.4995 18.9068C11.5774 18.7187 11.6916 18.5478 11.8356 18.4039C11.9795 18.2599 12.1504 18.1457 12.3385 18.0678C12.5266 17.9899 12.7282 17.9498 12.9317 17.9498H17.9497Z" fill="#FFE9C8"/>
</svg>
