<svg width="104" height="104" viewBox="0 0 104 104" fill="none" xmlns="http://www.w3.org/2000/svg">
<path fill-rule="evenodd" clip-rule="evenodd" d="M95.3334 52.0001C95.3334 75.9324 75.9324 95.3334 52.0001 95.3334C28.0677 95.3334 8.66675 75.9324 8.66675 52.0001C8.66675 28.0677 28.0677 8.66675 52.0001 8.66675C75.9324 8.66675 95.3334 28.0677 95.3334 52.0001ZM47.8661 47.8662V34.4849C47.8661 33.942 47.973 33.4044 48.1808 32.9029C48.3885 32.4013 48.693 31.9456 49.0769 31.5617C49.4608 31.1778 49.9165 30.8733 50.4181 30.6656C50.9196 30.4578 51.4572 30.3509 52.0001 30.3509C52.543 30.3509 53.0805 30.4578 53.5821 30.6656C54.0836 30.8733 54.5394 31.1778 54.9233 31.5617C55.3071 31.9456 55.6116 32.4013 55.8194 32.9029C56.0271 33.4044 56.1341 33.942 56.1341 34.4849V47.8662H69.5154C70.0583 47.8662 70.5959 47.9731 71.0974 48.1809C71.599 48.3886 72.0547 48.6931 72.4386 49.077C72.8225 49.4609 73.127 49.9166 73.3347 50.4182C73.5425 50.9198 73.6494 51.4573 73.6494 52.0002C73.6494 52.5431 73.5425 53.0807 73.3347 53.5822C73.127 54.0838 72.8225 54.5395 72.4386 54.9234C72.0547 55.3073 71.599 55.6118 71.0974 55.8195C70.5959 56.0273 70.0583 56.1342 69.5154 56.1342H56.1341V69.5155C56.1341 70.0584 56.0271 70.596 55.8194 71.0976C55.6116 71.5991 55.3071 72.0548 54.9233 72.4387C54.5394 72.8226 54.0836 73.1271 53.5821 73.3349C53.0805 73.5426 52.543 73.6495 52.0001 73.6495C51.4572 73.6495 50.9196 73.5426 50.4181 73.3349C49.9165 73.1271 49.4608 72.8226 49.0769 72.4387C48.693 72.0548 48.3885 71.5991 48.1808 71.0976C47.973 70.596 47.8661 70.0584 47.8661 69.5155V56.1342H34.4847C33.9419 56.1342 33.4043 56.0273 32.9027 55.8195C32.4012 55.6118 31.9454 55.3073 31.5616 54.9234C31.1777 54.5395 30.8732 54.0838 30.6654 53.5822C30.4577 53.0807 30.3507 52.5431 30.3507 52.0002C30.3507 51.4573 30.4577 50.9198 30.6654 50.4182C30.8732 49.9166 31.1777 49.4609 31.5616 49.077C31.9454 48.6931 32.4012 48.3886 32.9027 48.1809C33.4043 47.9731 33.9419 47.8662 34.4847 47.8662H47.8661Z" fill="#FEB37A"/>
</svg>
