<svg width="40" height="40" viewBox="0 0 40 40" fill="none" xmlns="http://www.w3.org/2000/svg">
<path fill-rule="evenodd" clip-rule="evenodd" d="M3.3335 11.6567C3.3335 9.82167 4.83016 8.33333 6.65016 8.33333H33.3502C35.1802 8.33333 36.6668 9.825 36.6668 11.6567V31.6767C36.6655 32.5565 36.3159 33.4 35.6944 34.0228C35.0728 34.6456 34.23 34.9969 33.3502 35H6.65016C5.76992 34.9982 4.92632 34.6473 4.30452 34.0243C3.68271 33.4012 3.33349 32.5569 3.3335 31.6767V11.6567ZM6.66683 11.6667V31.6667H33.3335V11.6667H6.66683Z" fill="#828282"/>
<path d="M20.0002 28.3333C21.7683 28.3333 23.464 27.631 24.7142 26.3807C25.9645 25.1305 26.6668 23.4348 26.6668 21.6667C26.6668 19.8986 25.9645 18.2029 24.7142 16.9526C23.464 15.7024 21.7683 15 20.0002 15C18.2321 15 16.5364 15.7024 15.2861 16.9526C14.0359 18.2029 13.3335 19.8986 13.3335 21.6667C13.3335 23.4348 14.0359 25.1305 15.2861 26.3807C16.5364 27.631 18.2321 28.3333 20.0002 28.3333ZM20.0002 25C19.1161 25 18.2683 24.6488 17.6431 24.0237C17.018 23.3986 16.6668 22.5507 16.6668 21.6667C16.6668 20.7826 17.018 19.9348 17.6431 19.3096C18.2683 18.6845 19.1161 18.3333 20.0002 18.3333C20.8842 18.3333 21.7321 18.6845 22.3572 19.3096C22.9823 19.9348 23.3335 20.7826 23.3335 21.6667C23.3335 22.5507 22.9823 23.3986 22.3572 24.0237C21.7321 24.6488 20.8842 25 20.0002 25Z" fill="#828282"/>
<path fill-rule="evenodd" clip-rule="evenodd" d="M13.3335 6.66667C13.3335 5.74667 14.0885 5 14.9952 5H25.0052C25.9218 5 26.6668 5.74 26.6668 6.66667V8.33333H13.3335V6.66667Z" fill="#828282"/>
<path d="M31.6668 15C31.6668 14.0795 30.9206 13.3333 30.0002 13.3333C29.0797 13.3333 28.3335 14.0795 28.3335 15C28.3335 15.9205 29.0797 16.6667 30.0002 16.6667C30.9206 16.6667 31.6668 15.9205 31.6668 15Z" fill="#828282"/>
</svg>
