<svg width="104" height="104" viewBox="0 0 104 104" fill="none" xmlns="http://www.w3.org/2000/svg">
<path fill-rule="evenodd" clip-rule="evenodd" d="M95.3334 51.9998C95.3334 75.9322 75.9324 95.3332 52.0001 95.3332C28.0677 95.3332 8.66675 75.9322 8.66675 51.9998C8.66675 28.0675 28.0677 8.6665 52.0001 8.6665C75.9324 8.6665 95.3334 28.0675 95.3334 51.9998ZM47.8661 47.866V34.4846C47.8661 33.9417 47.973 33.4042 48.1808 32.9026C48.3885 32.4011 48.693 31.9453 49.0769 31.5614C49.4608 31.1776 49.9165 30.8731 50.4181 30.6653C50.9196 30.4576 51.4572 30.3506 52.0001 30.3506C52.543 30.3506 53.0805 30.4576 53.5821 30.6653C54.0836 30.8731 54.5394 31.1776 54.9233 31.5614C55.3071 31.9453 55.6116 32.4011 55.8194 32.9026C56.0271 33.4042 56.1341 33.9417 56.1341 34.4846V47.866H69.5154C70.0583 47.866 70.5959 47.9729 71.0974 48.1806C71.599 48.3884 72.0547 48.6929 72.4386 49.0768C72.8225 49.4607 73.127 49.9164 73.3347 50.4179C73.5425 50.9195 73.6494 51.4571 73.6494 52C73.6494 52.5428 73.5425 53.0804 73.3347 53.582C73.127 54.0835 72.8225 54.5393 72.4386 54.9231C72.0547 55.307 71.599 55.6115 71.0974 55.8193C70.5959 56.027 70.0583 56.134 69.5154 56.134H56.1341V69.5153C56.1341 70.0582 56.0271 70.5957 55.8194 71.0973C55.6116 71.5989 55.3071 72.0546 54.9233 72.4385C54.5394 72.8223 54.0836 73.1269 53.5821 73.3346C53.0805 73.5424 52.543 73.6493 52.0001 73.6493C51.4572 73.6493 50.9196 73.5424 50.4181 73.3346C49.9165 73.1269 49.4608 72.8223 49.0769 72.4385C48.693 72.0546 48.3885 71.5989 48.1808 71.0973C47.973 70.5957 47.8661 70.0582 47.8661 69.5153V56.134H34.4847C33.9419 56.134 33.4043 56.027 32.9027 55.8193C32.4012 55.6115 31.9454 55.307 31.5616 54.9231C31.1777 54.5393 30.8732 54.0835 30.6654 53.582C30.4577 53.0804 30.3507 52.5428 30.3507 52C30.3507 51.4571 30.4577 50.9195 30.6654 50.4179C30.8732 49.9164 31.1777 49.4607 31.5616 49.0768C31.9454 48.6929 32.4012 48.3884 32.9027 48.1806C33.4043 47.9729 33.9419 47.866 34.4847 47.866H47.8661Z" fill="#FFE9C8"/>
</svg>
